<?xml version="1.0" encoding="UTF-8" standalone="no"?>
<svg width="400px" height="400px" viewBox="0 0 400 400" version="1.1" xmlns="http://www.w3.org/2000/svg" xmlns:xlink="http://www.w3.org/1999/xlink" xmlns:sketch="http://www.bohemiancoding.com/sketch/ns">
    <!-- Generator: Sketch 3.4.4 (17249) - http://www.bohemiancoding.com/sketch -->
    <title>my_xiaoxi </title>
    <desc>Created with Sketch.</desc>
    <defs></defs>
    <g id="Page-1" stroke="none" stroke-width="1" fill="none" fill-rule="evenodd" sketch:type="MSPage">
        <g id="my_xiaoxi-" sketch:type="MSArtboardGroup" fill="#59D98D">
            <g id="消息" sketch:type="MSLayerGroup" transform="translate(48.000000, 10.000000)">
                <path d="M298.973143,297.529143 L271.852,248.465714 L271.852,145.941714 C271.852,124.564 264.306286,102.024571 250.582857,82.4817143 C236.642286,62.5914286 217.056,47.0331429 195.439429,38.6731429 C195.309143,38.6188571 195.189714,38.5754286 195.059429,38.532 C194.56,38.3691429 192.725143,37.7611429 190.010857,36.9577143 L190.010857,33.5485714 C190.010857,15.048 175.375429,0 157.396,0 C139.405714,0 124.770286,15.048 124.770286,33.5485714 L124.770286,36.7188571 C122.240571,37.4571429 120.644571,37.9782857 120.46,38.0434286 C120.373143,38.076 120.275429,38.1085714 120.177714,38.1411429 C98.2354286,46.3165714 78.3234286,61.8531429 64.0897143,81.9062857 C50.1165714,101.601143 42.4297143,124.336 42.4297143,145.941714 L42.4297143,248.465714 L13.4085714,300.981714 C9.91257143,307.246286 9.93428571,315.030857 13.4628571,321.317143 C16.9805714,327.570857 23.5382857,331.446857 30.6062857,331.446857 L102.306857,331.446857 C106.421714,358.904571 129.558286,380 157.396,380 C185.222857,380 208.359429,358.904571 212.474286,331.446857 L284.164,331.446857 C295.097143,331.446857 303.989143,322.316 303.989143,311.089714 C303.989143,305.997714 302.219429,301.231429 298.973143,297.529143 L298.973143,297.529143 Z M157.396,17.5125714 C165.723429,17.5125714 172.552571,24.2657143 172.965143,32.7342857 C171.217143,32.3868571 169.447429,32.0828571 167.688571,31.8114286 C166.928571,31.7028571 166.179429,31.692 165.441143,31.7897143 C165.137143,31.7354286 164.833143,31.692 164.518286,31.6485714 C162.346857,31.3011429 159.882286,30.9211429 157.124571,30.9211429 C154.377714,30.9211429 151.913143,31.3011429 149.741714,31.6485714 C149.470286,31.6811429 149.209714,31.7245714 148.949143,31.768 C148.189143,31.6594286 147.407429,31.6594286 146.625714,31.768 C145.018857,32.0068571 143.412,32.2782857 141.826857,32.5714286 C142.326286,24.1788571 149.112,17.5125714 157.396,17.5125714 L157.396,17.5125714 Z M157.569714,358.383429 C144.356571,358.383429 133.282286,349.024571 130.492,336.549714 L184.647429,336.549714 C181.857143,349.024571 170.782857,358.383429 157.569714,358.383429 L157.569714,358.383429 Z M279.853714,314.954857 L35.264,314.954857 C34.2977143,314.954857 33.4182857,314.433714 32.9622857,313.608571 C32.4737143,312.718286 32.452,311.643429 32.9405714,310.753143 L62.016,257.173143 C62.7217143,255.881143 63.0908571,254.415429 63.0908571,252.928 L63.0908571,149.969714 C63.0908571,112.751429 90.6028571,74.2411429 127.115429,60.3222857 C128.309714,59.9314286 137.755429,56.8588571 147.277143,55.2194286 C147.841714,55.2845714 148.428,55.2845714 149.003429,55.2302857 C150.284571,55.0891429 151.478857,54.9045714 152.629714,54.72 C154.377714,54.4377143 155.886857,54.2097143 157.309143,54.2097143 C158.731429,54.2097143 160.240571,54.4377143 161.988571,54.72 C163.139429,54.9045714 164.322857,55.0891429 165.604,55.2302857 C166.136,55.2845714 166.657143,55.2845714 167.167429,55.2411429 C177.058286,56.9674286 187.144571,60.268 188.664571,60.7782857 C224.525714,75.012 251.549143,113.316 251.549143,149.969714 L251.549143,252.928 C251.549143,254.415429 251.918286,255.881143 252.624,257.184 L280.353143,308.256 C280.744,308.972571 281.221714,309.624 281.786286,310.188571 C282.274857,310.688 282.546286,311.382857 282.546286,312.153714 C282.546286,313.728 281.362857,314.954857 279.853714,314.954857 L279.853714,314.954857 Z" id="Shape" sketch:type="MSShapeGroup"></path>
            </g>
        </g>
    </g>
</svg>