<?xml version="1.0" encoding="UTF-8" standalone="no"?>
<svg width="400px" height="400px" viewBox="0 0 400 400" version="1.1" xmlns="http://www.w3.org/2000/svg" xmlns:xlink="http://www.w3.org/1999/xlink" xmlns:sketch="http://www.bohemiancoding.com/sketch/ns">
    <!-- Generator: Sketch 3.4.4 (17249) - http://www.bohemiancoding.com/sketch -->
    <title>my_qykanban</title>
    <desc>Created with Sketch.</desc>
    <defs></defs>
    <g id="Page-1" stroke="none" stroke-width="1" fill="none" fill-rule="evenodd" sketch:type="MSPage">
        <g id="my_qykanban" sketch:type="MSArtboardGroup" fill="#556478">
            <g id="kanban" sketch:type="MSLayerGroup" transform="translate(10.000000, 25.000000)">
                <path d="M347.4036,275.2492 L197.068,275.2492 L197.068,335.2056 L246.7568,335.2056 C250.6708,335.2056 253.8552,338.39 253.8552,342.3268 C253.8552,346.2636 250.6708,349.4632 246.7568,349.4632 L133.1976,349.4632 C129.276,349.4632 126.1068,346.2636 126.1068,342.3268 C126.1068,338.39 129.276,335.2056 133.1976,335.2056 L182.8788,335.2056 L182.8788,275.2492 L32.5584,275.2492 C14.6072,275.2492 0.0076,260.5888 0.0076,242.554 L0.0076,32.7408 C0.0076,14.7136 14.6072,0.0456 32.5584,0.0456 L347.4036,0.0456 C365.3472,0.0456 379.9468,14.7136 379.9468,32.7408 L379.9468,242.554 C379.9468,260.5888 365.3472,275.2492 347.4036,275.2492 L347.4036,275.2492 Z M362.6568,32.7408 C362.6568,24.282 355.8244,17.4192 347.4036,17.4192 L32.5584,17.4192 C24.13,17.4192 17.2976,24.282 17.2976,32.7408 L17.2976,242.554 C17.2976,251.0204 24.13,257.8756 32.5584,257.8756 L347.4036,257.8756 C355.8244,257.8756 362.6568,251.0204 362.6568,242.554 L362.6568,32.7408 L362.6568,32.7408 Z M324.3148,77.6796 L59.394,77.6796 C55.48,77.6796 52.2956,74.4876 52.2956,70.5508 C52.2956,66.614 55.48,63.422 59.394,63.422 L324.3148,63.422 C328.2364,63.422 331.4132,66.614 331.4132,70.5508 C331.4132,74.4876 328.2364,77.6796 324.3148,77.6796 L324.3148,77.6796 Z M68.0048,121.8356 C71.9796,121.8356 75.202,125.058 75.202,129.0328 L75.202,213.446 C75.202,217.4208 71.9796,220.6356 68.0048,220.6356 C64.03,220.6356 60.8,217.4208 60.8,213.4384 L60.8,129.0328 C60.8,125.058 64.03,121.8356 68.0048,121.8356 L68.0048,121.8356 Z M106.3848,144.8484 C110.3596,144.8484 113.582,148.0708 113.582,152.0456 L113.582,213.446 C113.582,217.4208 110.3596,220.6356 106.3848,220.6356 C102.41,220.6356 99.1876,217.4208 99.1876,213.4384 L99.1876,152.0456 C99.1876,148.0708 102.41,144.8484 106.3848,144.8484 L106.3848,144.8484 Z M144.8028,167.8688 C148.7776,167.8688 152,171.0912 152,175.0584 L152,213.446 C152,217.4208 148.7776,220.6356 144.8028,220.6356 C140.828,220.6356 137.598,217.4208 137.598,213.446 L137.598,175.0584 C137.598,171.0912 140.828,167.8688 144.8028,167.8688 L144.8028,167.8688 Z M190,136.6024 C190,136.572 190.0152,136.5492 190.0152,136.5188 C190.0152,136.496 190,136.4656 190,136.4428 C190,132.582 193.2148,129.4356 197.1744,129.4356 L319.6332,129.4356 C323.5928,129.4356 326.8,132.582 326.8,136.4428 C326.8,138.0312 326.1616,139.422 325.2496,140.6 L325.2496,205.998 C325.2496,208.1184 324.1704,209.9652 322.5516,211.2496 C321.2824,213.1952 319.2,214.5556 316.7148,214.5556 L195.5556,214.5556 C191.6416,214.5556 188.4648,211.356 188.4648,207.4268 C188.4648,205.808 189.0956,204.3868 190,203.1936 L190,136.6024 L190,136.6024 Z M309.89,200.298 L309.89,143.4424 L205.2,143.4424 L205.2,200.298 L309.89,200.298 L309.89,200.298 Z" id="Shape" sketch:type="MSShapeGroup"></path>
            </g>
        </g>
    </g>
</svg>