<?xml version="1.0" encoding="UTF-8" standalone="no"?>
<svg width="400px" height="400px" viewBox="0 0 400 400" version="1.1" xmlns="http://www.w3.org/2000/svg" xmlns:xlink="http://www.w3.org/1999/xlink" xmlns:sketch="http://www.bohemiancoding.com/sketch/ns">
    <!-- Generator: Sketch 3.4.4 (17249) - http://www.bohemiancoding.com/sketch -->
    <title>my_goutong</title>
    <desc>Created with Sketch.</desc>
    <defs></defs>
    <g id="Page-1" stroke="none" stroke-width="1" fill="none" fill-rule="evenodd" sketch:type="MSPage">
        <g id="my_goutong" sketch:type="MSArtboardGroup" fill="#FF73A1">
            <g id="沟通" sketch:type="MSLayerGroup" transform="translate(10.000000, 10.000000)">
                <path d="M365.125714,266.770857 C355.571429,288.734857 341.913143,308.473143 324.498286,325.432 C307.072571,342.412571 286.758857,355.766857 264.110857,365.082286 C240.616,374.756 215.688,379.652571 189.989143,379.652571 C164.301143,379.652571 139.373143,374.756 115.878286,365.093143 C112.273714,363.605714 106.693143,362.889143 98.8,362.889143 C93.4474286,362.889143 87.7474286,363.193143 82.0148571,363.497143 C75.848,363.822857 69.6594286,364.148571 63.764,364.148571 C51.7994286,364.148571 36.8491429,362.976 27.436,353.801714 C15.4171429,342.097714 16.2422857,321.002286 17.0348571,300.612571 C17.5451429,287.594857 18.0662857,274.132 14.8742857,266.770857 C5.00514286,244.057714 0,219.933143 0,195.048571 C0,170.164 4.99428571,146.028571 14.8742857,123.315429 C24.4177143,101.351429 38.0868571,81.624 55.5017143,64.6542857 C72.884,47.6954286 93.2085714,34.3628571 115.878286,25.0148571 C162.857143,5.64571429 217.164571,5.65657143 264.110857,25.0148571 C286.769714,34.352 307.094286,47.6954286 324.498286,64.6542857 C341.924,81.6348571 355.582286,101.373143 365.125714,123.315429 C375.005714,146.072 380,170.207429 380,195.048571 C380,219.900571 375.005714,244.036 365.125714,266.770857 L365.125714,266.770857 Z M344.888,131.349714 C336.408571,111.958857 324.248571,94.5331429 308.755429,79.5394286 C293.327429,64.6217143 275.348,52.9068571 255.305714,44.7097143 C213.929143,27.8051429 166.06,27.8051429 124.661714,44.7097143 C104.619429,52.9068571 86.6291429,64.6325714 71.2228571,79.5394286 C55.7297143,94.5222857 43.5697143,111.937143 35.0902857,131.349714 C26.2851429,151.446286 21.8228571,172.834857 21.8228571,194.885714 C21.8228571,216.936571 26.2851429,238.325143 35.0902857,258.410857 C39.7371429,269.04 39.1725714,283.393143 38.5754286,298.614857 C37.9674286,314.162286 37.2725714,331.794286 43.6131429,337.928571 C46.9028571,341.109714 54.1554286,342.651429 65.7617143,342.651429 C71.2228571,342.651429 76.9445714,342.336571 82.6445714,342.043429 C88.6594286,341.728571 94.6308571,341.424571 100.244,341.424571 C110.840571,341.424571 118.603429,342.575429 124.672571,345.061714 C166.081714,361.955429 213.907429,361.955429 255.316571,345.061714 C275.337143,336.875429 293.316571,325.149714 308.755429,310.221143 C324.237714,295.249143 336.397714,277.823429 344.888,258.410857 C353.704,238.292571 358.166286,216.914857 358.166286,194.885714 C358.166286,172.856571 353.704,151.468 344.888,131.349714 L344.888,131.349714 Z M271.428571,184.234857 L108.571429,184.234857 C102.578286,184.234857 97.7142857,179.370857 97.7142857,173.377714 C97.7142857,167.373714 102.578286,162.520571 108.571429,162.520571 L271.428571,162.520571 C277.421714,162.520571 282.285714,167.373714 282.285714,173.377714 C282.285714,179.370857 277.421714,184.234857 271.428571,184.234857 L271.428571,184.234857 Z M130.285714,227.663429 L249.714286,227.663429 C255.707429,227.663429 260.571429,232.527429 260.571429,238.520571 C260.571429,244.513714 255.707429,249.377714 249.714286,249.377714 L130.285714,249.377714 C124.292571,249.377714 119.428571,244.513714 119.428571,238.520571 C119.428571,232.527429 124.292571,227.663429 130.285714,227.663429 L130.285714,227.663429 Z" id="Shape" sketch:type="MSShapeGroup"></path>
            </g>
        </g>
    </g>
</svg>